<?xml version="1.0" encoding="utf-8" standalone="no"?>
<!DOCTYPE svg PUBLIC "-//W3C//DTD SVG 1.1//EN"
  "http://www.w3.org/Graphics/SVG/1.1/DTD/svg11.dtd">
<svg xmlns:xlink="http://www.w3.org/1999/xlink" width="1063.44pt" height="505.8pt" viewBox="0 0 1063.44 505.8" xmlns="http://www.w3.org/2000/svg" version="1.1">
 <metadata>
  <rdf:RDF xmlns:dc="http://purl.org/dc/elements/1.1/" xmlns:cc="http://creativecommons.org/ns#" xmlns:rdf="http://www.w3.org/1999/02/22-rdf-syntax-ns#">
   <cc:Work>
    <dc:type rdf:resource="http://purl.org/dc/dcmitype/StillImage"/>
    <dc:date>2026-05-05T00:30:02.604784</dc:date>
    <dc:format>image/svg+xml</dc:format>
    <dc:creator>
     <cc:Agent>
      <dc:title>Matplotlib v3.10.8, https://matplotlib.org/</dc:title>
     </cc:Agent>
    </dc:creator>
   </cc:Work>
  </rdf:RDF>
 </metadata>
 <defs>
  <style type="text/css">*{stroke-linejoin: round; stroke-linecap: butt}</style>
 </defs>
 <g id="figure_1">
  <g id="patch_1">
   <path d="M 0 505.8 
L 1063.44 505.8 
L 1063.44 0 
L 0 0 
z
" style="fill: #ffffff"/>
  </g>
  <g id="axes_1">
   <g id="patch_2">
    <path d="M 39.9825 466.659 
L 485.8245 466.659 
L 485.8245 56.34 
L 39.9825 56.34 
z
" clip-path="url(#p8b3d51ec82)" style="fill: #f5f9ff; stroke-dasharray: 7.4,3.2; stroke-dashoffset: 0; stroke: #9ca3af; stroke-width: 2; stroke-linejoin: miter"/>
   </g>
   <g id="patch_3">
    <path d="M 577.6155 466.659 
L 1023.4575 466.659 
L 1023.4575 56.34 
L 577.6155 56.34 
z
" clip-path="url(#p8b3d51ec82)" style="fill: #fffaf3; stroke-dasharray: 7.4,3.2; stroke-dashoffset: 0; stroke: #9ca3af; stroke-width: 2; stroke-linejoin: miter"/>
   </g>
   <g id="patch_4">
    <path d="M 111.44835 128.5758 
L 417.6369 128.5758 
Q 421.5708 128.5758 421.5708 125.6274 
L 421.5708 87.7896 
Q 421.5708 84.8412 417.6369 84.8412 
L 111.44835 84.8412 
Q 107.51445 84.8412 107.51445 87.7896 
L 107.51445 125.6274 
Q 107.51445 128.5758 111.44835 128.5758 
z
" clip-path="url(#p8b3d51ec82)" style="fill: #dbeafe; stroke: #1f2937; stroke-width: 2; stroke-linejoin: miter"/>
   </g>
   <g id="patch_5">
    <path d="M 111.44835 197.3718 
L 417.6369 197.3718 
Q 421.5708 197.3718 421.5708 194.4234 
L 421.5708 156.5856 
Q 421.5708 153.6372 417.6369 153.6372 
L 111.44835 153.6372 
Q 107.51445 153.6372 107.51445 156.5856 
L 107.51445 194.4234 
Q 107.51445 197.3718 111.44835 197.3718 
z
" clip-path="url(#p8b3d51ec82)" style="fill: #bfdbfe; stroke: #1f2937; stroke-width: 2; stroke-linejoin: miter"/>
   </g>
   <g id="patch_6">
    <path d="M 111.44835 266.1678 
L 417.6369 266.1678 
Q 421.5708 266.1678 421.5708 263.2194 
L 421.5708 225.3816 
Q 421.5708 222.4332 417.6369 222.4332 
L 111.44835 222.4332 
Q 107.51445 222.4332 107.51445 225.3816 
L 107.51445 263.2194 
Q 107.51445 266.1678 111.44835 266.1678 
z
" clip-path="url(#p8b3d51ec82)" style="fill: #93c5fd; stroke: #1f2937; stroke-width: 2; stroke-linejoin: miter"/>
   </g>
   <g id="patch_7">
    <path d="M 111.44835 334.9638 
L 417.6369 334.9638 
Q 421.5708 334.9638 421.5708 332.0154 
L 421.5708 294.1776 
Q 421.5708 291.2292 417.6369 291.2292 
L 111.44835 291.2292 
Q 107.51445 291.2292 107.51445 294.1776 
L 107.51445 332.0154 
Q 107.51445 334.9638 111.44835 334.9638 
z
" clip-path="url(#p8b3d51ec82)" style="fill: #fecaca; stroke: #1f2937; stroke-width: 2; stroke-linejoin: miter"/>
   </g>
   <g id="patch_8">
    <path d="M 111.44835 403.7598 
L 417.6369 403.7598 
Q 421.5708 403.7598 421.5708 400.8114 
L 421.5708 362.9736 
Q 421.5708 360.0252 417.6369 360.0252 
L 111.44835 360.0252 
Q 107.51445 360.0252 107.51445 362.9736 
L 107.51445 400.8114 
Q 107.51445 403.7598 111.44835 403.7598 
z
" clip-path="url(#p8b3d51ec82)" style="fill: #fca5a5; stroke: #1f2937; stroke-width: 2; stroke-linejoin: miter"/>
   </g>
   <g id="patch_9">
    <path d="M 264.542625 129.595611 
Q 264.542625 141.10738 264.542625 149.935867 
" clip-path="url(#p8b3d51ec82)" style="fill: none; stroke: #111827; stroke-width: 2.4; stroke-linecap: round"/>
    <path d="M 268.142625 142.735867 
L 264.542625 149.935867 
L 260.942625 142.735867 
z
" clip-path="url(#p8b3d51ec82)" style="fill: #111827; stroke: #111827; stroke-width: 2.4; stroke-linecap: round"/>
   </g>
   <g id="patch_10">
    <path d="M 264.542625 198.391611 
Q 264.542625 209.90338 264.542625 218.731867 
" clip-path="url(#p8b3d51ec82)" style="fill: none; stroke: #111827; stroke-width: 2.4; stroke-linecap: round"/>
    <path d="M 268.142625 211.531867 
L 264.542625 218.731867 
L 260.942625 211.531867 
z
" clip-path="url(#p8b3d51ec82)" style="fill: #111827; stroke: #111827; stroke-width: 2.4; stroke-linecap: round"/>
   </g>
   <g id="patch_11">
    <path d="M 264.542625 267.187611 
Q 264.542625 278.69938 264.542625 287.527867 
" clip-path="url(#p8b3d51ec82)" style="fill: none; stroke: #111827; stroke-width: 2.4; stroke-linecap: round"/>
    <path d="M 268.142625 280.327867 
L 264.542625 287.527867 
L 260.942625 280.327867 
z
" clip-path="url(#p8b3d51ec82)" style="fill: #111827; stroke: #111827; stroke-width: 2.4; stroke-linecap: round"/>
   </g>
   <g id="patch_12">
    <path d="M 264.542625 335.983611 
Q 264.542625 347.49538 264.542625 356.323867 
" clip-path="url(#p8b3d51ec82)" style="fill: none; stroke: #111827; stroke-width: 2.4; stroke-linecap: round"/>
    <path d="M 268.142625 349.123867 
L 264.542625 356.323867 
L 260.942625 349.123867 
z
" clip-path="url(#p8b3d51ec82)" style="fill: #111827; stroke: #111827; stroke-width: 2.4; stroke-linecap: round"/>
   </g>
   <g id="patch_13">
    <path d="M 635.96835 128.5758 
L 942.1569 128.5758 
Q 946.0908 128.5758 946.0908 125.6274 
L 946.0908 87.7896 
Q 946.0908 84.8412 942.1569 84.8412 
L 635.96835 84.8412 
Q 632.03445 84.8412 632.03445 87.7896 
L 632.03445 125.6274 
Q 632.03445 128.5758 635.96835 128.5758 
z
" clip-path="url(#p8b3d51ec82)" style="fill: #dbeafe; stroke: #1f2937; stroke-width: 2; stroke-linejoin: miter"/>
   </g>
   <g id="patch_14">
    <path d="M 635.96835 197.3718 
L 942.1569 197.3718 
Q 946.0908 197.3718 946.0908 194.4234 
L 946.0908 156.5856 
Q 946.0908 153.6372 942.1569 153.6372 
L 635.96835 153.6372 
Q 632.03445 153.6372 632.03445 156.5856 
L 632.03445 194.4234 
Q 632.03445 197.3718 635.96835 197.3718 
z
" clip-path="url(#p8b3d51ec82)" style="fill: #bfdbfe; stroke: #1f2937; stroke-width: 2; stroke-linejoin: miter"/>
   </g>
   <g id="patch_15">
    <path d="M 635.96835 266.1678 
L 942.1569 266.1678 
Q 946.0908 266.1678 946.0908 263.2194 
L 946.0908 225.3816 
Q 946.0908 222.4332 942.1569 222.4332 
L 635.96835 222.4332 
Q 632.03445 222.4332 632.03445 225.3816 
L 632.03445 263.2194 
Q 632.03445 266.1678 635.96835 266.1678 
z
" clip-path="url(#p8b3d51ec82)" style="fill: #bbf7d0; stroke: #1f2937; stroke-width: 2; stroke-linejoin: miter"/>
   </g>
   <g id="patch_16">
    <path d="M 635.96835 334.9638 
L 942.1569 334.9638 
Q 946.0908 334.9638 946.0908 332.0154 
L 946.0908 294.1776 
Q 946.0908 291.2292 942.1569 291.2292 
L 635.96835 291.2292 
Q 632.03445 291.2292 632.03445 294.1776 
L 632.03445 332.0154 
Q 632.03445 334.9638 635.96835 334.9638 
z
" clip-path="url(#p8b3d51ec82)" style="fill: #fed7aa; stroke: #1f2937; stroke-width: 2; stroke-linejoin: miter"/>
   </g>
   <g id="patch_17">
    <path d="M 635.96835 403.7598 
L 942.1569 403.7598 
Q 946.0908 403.7598 946.0908 400.8114 
L 946.0908 362.9736 
Q 946.0908 360.0252 942.1569 360.0252 
L 635.96835 360.0252 
Q 632.03445 360.0252 632.03445 362.9736 
L 632.03445 400.8114 
Q 632.03445 403.7598 635.96835 403.7598 
z
" clip-path="url(#p8b3d51ec82)" style="fill: #86efac; stroke: #1f2937; stroke-width: 2; stroke-linejoin: miter"/>
   </g>
   <g id="patch_18">
    <path d="M 789.062625 129.595611 
Q 789.062625 141.10738 789.062625 149.935867 
" clip-path="url(#p8b3d51ec82)" style="fill: none; stroke: #111827; stroke-width: 2.4; stroke-linecap: round"/>
    <path d="M 792.662625 142.735867 
L 789.062625 149.935867 
L 785.462625 142.735867 
z
" clip-path="url(#p8b3d51ec82)" style="fill: #111827; stroke: #111827; stroke-width: 2.4; stroke-linecap: round"/>
   </g>
   <g id="patch_19">
    <path d="M 789.062625 198.391611 
Q 789.062625 209.90338 789.062625 218.731867 
" clip-path="url(#p8b3d51ec82)" style="fill: none; stroke: #111827; stroke-width: 2.4; stroke-linecap: round"/>
    <path d="M 792.662625 211.531867 
L 789.062625 218.731867 
L 785.462625 211.531867 
z
" clip-path="url(#p8b3d51ec82)" style="fill: #111827; stroke: #111827; stroke-width: 2.4; stroke-linecap: round"/>
   </g>
   <g id="patch_20">
    <path d="M 789.062625 267.187611 
Q 789.062625 278.69938 789.062625 287.527867 
" clip-path="url(#p8b3d51ec82)" style="fill: none; stroke: #111827; stroke-width: 2.4; stroke-linecap: round"/>
    <path d="M 792.662625 280.327867 
L 789.062625 287.527867 
L 785.462625 280.327867 
z
" clip-path="url(#p8b3d51ec82)" style="fill: #111827; stroke: #111827; stroke-width: 2.4; stroke-linecap: round"/>
   </g>
   <g id="patch_21">
    <path d="M 789.062625 335.983611 
Q 789.062625 347.49538 789.062625 356.323867 
" clip-path="url(#p8b3d51ec82)" style="fill: none; stroke: #111827; stroke-width: 2.4; stroke-linecap: round"/>
    <path d="M 792.662625 349.123867 
L 789.062625 356.323867 
L 785.462625 349.123867 
z
" clip-path="url(#p8b3d51ec82)" style="fill: #111827; stroke: #111827; stroke-width: 2.4; stroke-linecap: round"/>
   </g>
   <g id="patch_22">
    <path d="M 862.1676 204.7428 
L 994.6089 204.7428 
Q 998.5428 204.7428 998.5428 201.7944 
L 998.5428 170.3448 
Q 998.5428 167.3964 994.6089 167.3964 
L 862.1676 167.3964 
Q 858.2337 167.3964 858.2337 170.3448 
L 858.2337 201.7944 
Q 858.2337 204.7428 862.1676 204.7428 
z
" clip-path="url(#p8b3d51ec82)" style="fill: #fef3c7; stroke: #1f2937; stroke-width: 2; stroke-linejoin: miter"/>
   </g>
   <g id="patch_23">
    <path d="M 862.1676 256.3398 
L 994.6089 256.3398 
Q 998.5428 256.3398 998.5428 253.3914 
L 998.5428 217.0278 
Q 998.5428 214.0794 994.6089 214.0794 
L 862.1676 214.0794 
Q 858.2337 214.0794 858.2337 217.0278 
L 858.2337 253.3914 
Q 858.2337 256.3398 862.1676 256.3398 
z
" clip-path="url(#p8b3d51ec82)" style="fill: #fdba74; stroke: #1f2937; stroke-width: 2; stroke-linejoin: miter"/>
   </g>
   <g id="patch_24">
    <path d="M 862.1676 310.3938 
L 994.6089 310.3938 
Q 998.5428 310.3938 998.5428 307.4454 
L 998.5428 271.0818 
Q 998.5428 268.1334 994.6089 268.1334 
L 862.1676 268.1334 
Q 858.2337 268.1334 858.2337 271.0818 
L 858.2337 307.4454 
Q 858.2337 310.3938 862.1676 310.3938 
z
" clip-path="url(#p8b3d51ec82)" style="fill: #fb923c; stroke: #1f2937; stroke-width: 2; stroke-linejoin: miter"/>
   </g>
   <g id="patch_25">
    <path d="M 944.287804 311.404194 
Q 924.51535 234.73875 863.301075 188.873958 
" clip-path="url(#p8b3d51ec82)" style="fill: none; stroke: #2563eb; stroke-width: 2.4; stroke-linecap: round"/>
    <path d="M 866.904532 196.072229 
L 863.301075 188.873958 
L 871.221766 190.310155 
z
" clip-path="url(#p8b3d51ec82)" style="fill: #2563eb; stroke: #2563eb; stroke-width: 2.4; stroke-linecap: round"/>
   </g>
   <g id="patch_26">
    <path d="M 928.38825 206.249392 
Q 928.38825 209.655319 928.38825 210.377964 
" clip-path="url(#p8b3d51ec82)" style="fill: none; stroke: #2563eb; stroke-width: 2.4; stroke-linecap: round"/>
    <path d="M 931.98825 203.177964 
L 928.38825 210.377964 
L 924.78825 203.177964 
z
" clip-path="url(#p8b3d51ec82)" style="fill: #2563eb; stroke: #2563eb; stroke-width: 2.4; stroke-linecap: round"/>
   </g>
   <g id="patch_27">
    <path d="M 928.38825 257.355712 
Q 928.38825 262.235338 928.38825 264.431683 
" clip-path="url(#p8b3d51ec82)" style="fill: none; stroke: #2563eb; stroke-width: 2.4; stroke-linecap: round"/>
    <path d="M 931.98825 257.231683 
L 928.38825 264.431683 
L 924.78825 257.231683 
z
" clip-path="url(#p8b3d51ec82)" style="fill: #2563eb; stroke: #2563eb; stroke-width: 2.4; stroke-linecap: round"/>
   </g>
   <g id="patch_28">
    <path d="M 860.779506 292.603944 
Q 892.507936 252.699374 940.156472 244.80725 
" clip-path="url(#p8b3d51ec82)" style="fill: none; stroke: #dc2626; stroke-width: 2.4; stroke-linecap: round"/>
    <path d="M 932.464987 242.432159 
L 940.156472 244.80725 
L 933.641509 249.535383 
z
" clip-path="url(#p8b3d51ec82)" style="fill: #dc2626; stroke: #dc2626; stroke-width: 2.4; stroke-linecap: round"/>
   </g>
   <g id="text_1">
    <!-- Traditional Pipeline -->
    <g transform="translate(180.929672 69.279703) scale(0.15 -0.15)">
     <defs>
      <path id="DejaVuSans-Bold-54" d="M 31 4666 
L 4331 4666 
L 4331 3756 
L 2784 3756 
L 2784 0 
L 1581 0 
L 1581 3756 
L 31 3756 
L 31 4666 
z
" transform="scale(0.015625)"/>
      <path id="DejaVuSans-Bold-72" d="M 3138 2547 
Q 2991 2616 2845 2648 
Q 2700 2681 2553 2681 
Q 2122 2681 1889 2404 
Q 1656 2128 1656 1613 
L 1656 0 
L 538 0 
L 538 3500 
L 1656 3500 
L 1656 2925 
Q 1872 3269 2151 3426 
Q 2431 3584 2822 3584 
Q 2878 3584 2943 3579 
Q 3009 3575 3134 3559 
L 3138 2547 
z
" transform="scale(0.015625)"/>
      <path id="DejaVuSans-Bold-61" d="M 2106 1575 
Q 1756 1575 1579 1456 
Q 1403 1338 1403 1106 
Q 1403 894 1545 773 
Q 1688 653 1941 653 
Q 2256 653 2472 879 
Q 2688 1106 2688 1447 
L 2688 1575 
L 2106 1575 
z
M 3816 1997 
L 3816 0 
L 2688 0 
L 2688 519 
Q 2463 200 2181 54 
Q 1900 -91 1497 -91 
Q 953 -91 614 226 
Q 275 544 275 1050 
Q 275 1666 698 1953 
Q 1122 2241 2028 2241 
L 2688 2241 
L 2688 2328 
Q 2688 2594 2478 2717 
Q 2269 2841 1825 2841 
Q 1466 2841 1156 2769 
Q 847 2697 581 2553 
L 581 3406 
Q 941 3494 1303 3539 
Q 1666 3584 2028 3584 
Q 2975 3584 3395 3211 
Q 3816 2838 3816 1997 
z
" transform="scale(0.015625)"/>
      <path id="DejaVuSans-Bold-64" d="M 2919 2988 
L 2919 4863 
L 4044 4863 
L 4044 0 
L 2919 0 
L 2919 506 
Q 2688 197 2409 53 
Q 2131 -91 1766 -91 
Q 1119 -91 703 423 
Q 288 938 288 1747 
Q 288 2556 703 3070 
Q 1119 3584 1766 3584 
Q 2128 3584 2408 3439 
Q 2688 3294 2919 2988 
z
M 2181 722 
Q 2541 722 2730 984 
Q 2919 1247 2919 1747 
Q 2919 2247 2730 2509 
Q 2541 2772 2181 2772 
Q 1825 2772 1636 2509 
Q 1447 2247 1447 1747 
Q 1447 1247 1636 984 
Q 1825 722 2181 722 
z
" transform="scale(0.015625)"/>
      <path id="DejaVuSans-Bold-69" d="M 538 3500 
L 1656 3500 
L 1656 0 
L 538 0 
L 538 3500 
z
M 538 4863 
L 1656 4863 
L 1656 3950 
L 538 3950 
L 538 4863 
z
" transform="scale(0.015625)"/>
      <path id="DejaVuSans-Bold-74" d="M 1759 4494 
L 1759 3500 
L 2913 3500 
L 2913 2700 
L 1759 2700 
L 1759 1216 
Q 1759 972 1856 886 
Q 1953 800 2241 800 
L 2816 800 
L 2816 0 
L 1856 0 
Q 1194 0 917 276 
Q 641 553 641 1216 
L 641 2700 
L 84 2700 
L 84 3500 
L 641 3500 
L 641 4494 
L 1759 4494 
z
" transform="scale(0.015625)"/>
      <path id="DejaVuSans-Bold-6f" d="M 2203 2784 
Q 1831 2784 1636 2517 
Q 1441 2250 1441 1747 
Q 1441 1244 1636 976 
Q 1831 709 2203 709 
Q 2569 709 2762 976 
Q 2956 1244 2956 1747 
Q 2956 2250 2762 2517 
Q 2569 2784 2203 2784 
z
M 2203 3584 
Q 3106 3584 3614 3096 
Q 4122 2609 4122 1747 
Q 4122 884 3614 396 
Q 3106 -91 2203 -91 
Q 1297 -91 786 396 
Q 275 884 275 1747 
Q 275 2609 786 3096 
Q 1297 3584 2203 3584 
z
" transform="scale(0.015625)"/>
      <path id="DejaVuSans-Bold-6e" d="M 4056 2131 
L 4056 0 
L 2931 0 
L 2931 347 
L 2931 1631 
Q 2931 2084 2911 2256 
Q 2891 2428 2841 2509 
Q 2775 2619 2662 2680 
Q 2550 2741 2406 2741 
Q 2056 2741 1856 2470 
Q 1656 2200 1656 1722 
L 1656 0 
L 538 0 
L 538 3500 
L 1656 3500 
L 1656 2988 
Q 1909 3294 2193 3439 
Q 2478 3584 2822 3584 
Q 3428 3584 3742 3212 
Q 4056 2841 4056 2131 
z
" transform="scale(0.015625)"/>
      <path id="DejaVuSans-Bold-6c" d="M 538 4863 
L 1656 4863 
L 1656 0 
L 538 0 
L 538 4863 
z
" transform="scale(0.015625)"/>
      <path id="DejaVuSans-Bold-20" transform="scale(0.015625)"/>
      <path id="DejaVuSans-Bold-50" d="M 588 4666 
L 2584 4666 
Q 3475 4666 3951 4270 
Q 4428 3875 4428 3144 
Q 4428 2409 3951 2014 
Q 3475 1619 2584 1619 
L 1791 1619 
L 1791 0 
L 588 0 
L 588 4666 
z
M 1791 3794 
L 1791 2491 
L 2456 2491 
Q 2806 2491 2997 2661 
Q 3188 2831 3188 3144 
Q 3188 3456 2997 3625 
Q 2806 3794 2456 3794 
L 1791 3794 
z
" transform="scale(0.015625)"/>
      <path id="DejaVuSans-Bold-70" d="M 1656 506 
L 1656 -1331 
L 538 -1331 
L 538 3500 
L 1656 3500 
L 1656 2988 
Q 1888 3294 2169 3439 
Q 2450 3584 2816 3584 
Q 3463 3584 3878 3070 
Q 4294 2556 4294 1747 
Q 4294 938 3878 423 
Q 3463 -91 2816 -91 
Q 2450 -91 2169 54 
Q 1888 200 1656 506 
z
M 2400 2772 
Q 2041 2772 1848 2508 
Q 1656 2244 1656 1747 
Q 1656 1250 1848 986 
Q 2041 722 2400 722 
Q 2759 722 2948 984 
Q 3138 1247 3138 1747 
Q 3138 2247 2948 2509 
Q 2759 2772 2400 2772 
z
" transform="scale(0.015625)"/>
      <path id="DejaVuSans-Bold-65" d="M 4031 1759 
L 4031 1441 
L 1416 1441 
Q 1456 1047 1700 850 
Q 1944 653 2381 653 
Q 2734 653 3104 758 
Q 3475 863 3866 1075 
L 3866 213 
Q 3469 63 3072 -14 
Q 2675 -91 2278 -91 
Q 1328 -91 801 392 
Q 275 875 275 1747 
Q 275 2603 792 3093 
Q 1309 3584 2216 3584 
Q 3041 3584 3536 3087 
Q 4031 2591 4031 1759 
z
M 2881 2131 
Q 2881 2450 2695 2645 
Q 2509 2841 2209 2841 
Q 1884 2841 1681 2658 
Q 1478 2475 1428 2131 
L 2881 2131 
z
" transform="scale(0.015625)"/>
     </defs>
     <use xlink:href="#DejaVuSans-Bold-54"/>
     <use xlink:href="#DejaVuSans-Bold-72" transform="translate(57.212891 0)"/>
     <use xlink:href="#DejaVuSans-Bold-61" transform="translate(106.529297 0)"/>
     <use xlink:href="#DejaVuSans-Bold-64" transform="translate(174.009766 0)"/>
     <use xlink:href="#DejaVuSans-Bold-69" transform="translate(245.591797 0)"/>
     <use xlink:href="#DejaVuSans-Bold-74" transform="translate(279.869141 0)"/>
     <use xlink:href="#DejaVuSans-Bold-69" transform="translate(327.671875 0)"/>
     <use xlink:href="#DejaVuSans-Bold-6f" transform="translate(361.949219 0)"/>
     <use xlink:href="#DejaVuSans-Bold-6e" transform="translate(430.650391 0)"/>
     <use xlink:href="#DejaVuSans-Bold-61" transform="translate(501.841797 0)"/>
     <use xlink:href="#DejaVuSans-Bold-6c" transform="translate(569.322266 0)"/>
     <use xlink:href="#DejaVuSans-Bold-20" transform="translate(603.599609 0)"/>
     <use xlink:href="#DejaVuSans-Bold-50" transform="translate(638.414062 0)"/>
     <use xlink:href="#DejaVuSans-Bold-69" transform="translate(711.705078 0)"/>
     <use xlink:href="#DejaVuSans-Bold-70" transform="translate(745.982422 0)"/>
     <use xlink:href="#DejaVuSans-Bold-65" transform="translate(817.564453 0)"/>
     <use xlink:href="#DejaVuSans-Bold-6c" transform="translate(885.386719 0)"/>
     <use xlink:href="#DejaVuSans-Bold-69" transform="translate(919.664062 0)"/>
     <use xlink:href="#DejaVuSans-Bold-6e" transform="translate(953.941406 0)"/>
     <use xlink:href="#DejaVuSans-Bold-65" transform="translate(1025.132812 0)"/>
    </g>
    <!-- (Open-loop SDS) -->
    <g transform="translate(192.880453 86.076422) scale(0.15 -0.15)">
     <defs>
      <path id="DejaVuSans-Bold-28" d="M 2413 -844 
L 1484 -844 
Q 1006 -72 778 623 
Q 550 1319 550 2003 
Q 550 2688 779 3389 
Q 1009 4091 1484 4856 
L 2413 4856 
Q 2013 4116 1813 3408 
Q 1613 2700 1613 2009 
Q 1613 1319 1811 609 
Q 2009 -100 2413 -844 
z
" transform="scale(0.015625)"/>
      <path id="DejaVuSans-Bold-4f" d="M 2719 3878 
Q 2169 3878 1866 3472 
Q 1563 3066 1563 2328 
Q 1563 1594 1866 1187 
Q 2169 781 2719 781 
Q 3272 781 3575 1187 
Q 3878 1594 3878 2328 
Q 3878 3066 3575 3472 
Q 3272 3878 2719 3878 
z
M 2719 4750 
Q 3844 4750 4481 4106 
Q 5119 3463 5119 2328 
Q 5119 1197 4481 553 
Q 3844 -91 2719 -91 
Q 1597 -91 958 553 
Q 319 1197 319 2328 
Q 319 3463 958 4106 
Q 1597 4750 2719 4750 
z
" transform="scale(0.015625)"/>
      <path id="DejaVuSans-Bold-2d" d="M 347 2297 
L 2309 2297 
L 2309 1388 
L 347 1388 
L 347 2297 
z
" transform="scale(0.015625)"/>
      <path id="DejaVuSans-Bold-53" d="M 3834 4519 
L 3834 3531 
Q 3450 3703 3084 3790 
Q 2719 3878 2394 3878 
Q 1963 3878 1756 3759 
Q 1550 3641 1550 3391 
Q 1550 3203 1689 3098 
Q 1828 2994 2194 2919 
L 2706 2816 
Q 3484 2659 3812 2340 
Q 4141 2022 4141 1434 
Q 4141 663 3683 286 
Q 3225 -91 2284 -91 
Q 1841 -91 1394 -6 
Q 947 78 500 244 
L 500 1259 
Q 947 1022 1364 901 
Q 1781 781 2169 781 
Q 2563 781 2772 912 
Q 2981 1044 2981 1288 
Q 2981 1506 2839 1625 
Q 2697 1744 2272 1838 
L 1806 1941 
Q 1106 2091 782 2419 
Q 459 2747 459 3303 
Q 459 4000 909 4375 
Q 1359 4750 2203 4750 
Q 2588 4750 2994 4692 
Q 3400 4634 3834 4519 
z
" transform="scale(0.015625)"/>
      <path id="DejaVuSans-Bold-44" d="M 1791 3756 
L 1791 909 
L 2222 909 
Q 2959 909 3348 1275 
Q 3738 1641 3738 2338 
Q 3738 3031 3350 3393 
Q 2963 3756 2222 3756 
L 1791 3756 
z
M 588 4666 
L 1856 4666 
Q 2919 4666 3439 4514 
Q 3959 4363 4331 4000 
Q 4659 3684 4818 3271 
Q 4978 2859 4978 2338 
Q 4978 1809 4818 1395 
Q 4659 981 4331 666 
Q 3956 303 3431 151 
Q 2906 0 1856 0 
L 588 0 
L 588 4666 
z
" transform="scale(0.015625)"/>
      <path id="DejaVuSans-Bold-29" d="M 513 -844 
Q 913 -100 1113 609 
Q 1313 1319 1313 2009 
Q 1313 2700 1113 3408 
Q 913 4116 513 4856 
L 1441 4856 
Q 1916 4091 2145 3389 
Q 2375 2688 2375 2003 
Q 2375 1319 2147 623 
Q 1919 -72 1441 -844 
L 513 -844 
z
" transform="scale(0.015625)"/>
     </defs>
     <use xlink:href="#DejaVuSans-Bold-28"/>
     <use xlink:href="#DejaVuSans-Bold-4f" transform="translate(45.703125 0)"/>
     <use xlink:href="#DejaVuSans-Bold-70" transform="translate(130.712891 0)"/>
     <use xlink:href="#DejaVuSans-Bold-65" transform="translate(202.294922 0)"/>
     <use xlink:href="#DejaVuSans-Bold-6e" transform="translate(270.117188 0)"/>
     <use xlink:href="#DejaVuSans-Bold-2d" transform="translate(341.308594 0)"/>
     <use xlink:href="#DejaVuSans-Bold-6c" transform="translate(382.8125 0)"/>
     <use xlink:href="#DejaVuSans-Bold-6f" transform="translate(417.089844 0)"/>
     <use xlink:href="#DejaVuSans-Bold-6f" transform="translate(485.791016 0)"/>
     <use xlink:href="#DejaVuSans-Bold-70" transform="translate(554.492188 0)"/>
     <use xlink:href="#DejaVuSans-Bold-20" transform="translate(626.074219 0)"/>
     <use xlink:href="#DejaVuSans-Bold-53" transform="translate(660.888672 0)"/>
     <use xlink:href="#DejaVuSans-Bold-44" transform="translate(732.910156 0)"/>
     <use xlink:href="#DejaVuSans-Bold-53" transform="translate(815.917969 0)"/>
     <use xlink:href="#DejaVuSans-Bold-29" transform="translate(887.939453 0)"/>
    </g>
   </g>
   <g id="text_2">
    <!-- Proposed Framework -->
    <g transform="translate(711.0615 69.279703) scale(0.15 -0.15)">
     <defs>
      <path id="DejaVuSans-Bold-73" d="M 3272 3391 
L 3272 2541 
Q 2913 2691 2578 2766 
Q 2244 2841 1947 2841 
Q 1628 2841 1473 2761 
Q 1319 2681 1319 2516 
Q 1319 2381 1436 2309 
Q 1553 2238 1856 2203 
L 2053 2175 
Q 2913 2066 3209 1816 
Q 3506 1566 3506 1031 
Q 3506 472 3093 190 
Q 2681 -91 1863 -91 
Q 1516 -91 1145 -36 
Q 775 19 384 128 
L 384 978 
Q 719 816 1070 734 
Q 1422 653 1784 653 
Q 2113 653 2278 743 
Q 2444 834 2444 1013 
Q 2444 1163 2330 1236 
Q 2216 1309 1875 1350 
L 1678 1375 
Q 931 1469 631 1722 
Q 331 1975 331 2491 
Q 331 3047 712 3315 
Q 1094 3584 1881 3584 
Q 2191 3584 2531 3537 
Q 2872 3491 3272 3391 
z
" transform="scale(0.015625)"/>
      <path id="DejaVuSans-Bold-46" d="M 588 4666 
L 3834 4666 
L 3834 3756 
L 1791 3756 
L 1791 2888 
L 3713 2888 
L 3713 1978 
L 1791 1978 
L 1791 0 
L 588 0 
L 588 4666 
z
" transform="scale(0.015625)"/>
      <path id="DejaVuSans-Bold-6d" d="M 3781 2919 
Q 3994 3244 4286 3414 
Q 4578 3584 4928 3584 
Q 5531 3584 5847 3212 
Q 6163 2841 6163 2131 
L 6163 0 
L 5038 0 
L 5038 1825 
Q 5041 1866 5042 1909 
Q 5044 1953 5044 2034 
Q 5044 2406 4934 2573 
Q 4825 2741 4581 2741 
Q 4263 2741 4089 2478 
Q 3916 2216 3909 1719 
L 3909 0 
L 2784 0 
L 2784 1825 
Q 2784 2406 2684 2573 
Q 2584 2741 2328 2741 
Q 2006 2741 1831 2477 
Q 1656 2213 1656 1722 
L 1656 0 
L 531 0 
L 531 3500 
L 1656 3500 
L 1656 2988 
Q 1863 3284 2130 3434 
Q 2397 3584 2719 3584 
Q 3081 3584 3359 3409 
Q 3638 3234 3781 2919 
z
" transform="scale(0.015625)"/>
      <path id="DejaVuSans-Bold-77" d="M 225 3500 
L 1313 3500 
L 1900 1088 
L 2491 3500 
L 3425 3500 
L 4013 1113 
L 4603 3500 
L 5691 3500 
L 4769 0 
L 3547 0 
L 2956 2406 
L 2369 0 
L 1147 0 
L 225 3500 
z
" transform="scale(0.015625)"/>
      <path id="DejaVuSans-Bold-6b" d="M 538 4863 
L 1656 4863 
L 1656 2216 
L 2944 3500 
L 4244 3500 
L 2534 1894 
L 4378 0 
L 3022 0 
L 1656 1459 
L 1656 0 
L 538 0 
L 538 4863 
z
" transform="scale(0.015625)"/>
     </defs>
     <use xlink:href="#DejaVuSans-Bold-50"/>
     <use xlink:href="#DejaVuSans-Bold-72" transform="translate(73.291016 0)"/>
     <use xlink:href="#DejaVuSans-Bold-6f" transform="translate(122.607422 0)"/>
     <use xlink:href="#DejaVuSans-Bold-70" transform="translate(191.308594 0)"/>
     <use xlink:href="#DejaVuSans-Bold-6f" transform="translate(262.890625 0)"/>
     <use xlink:href="#DejaVuSans-Bold-73" transform="translate(331.591797 0)"/>
     <use xlink:href="#DejaVuSans-Bold-65" transform="translate(391.113281 0)"/>
     <use xlink:href="#DejaVuSans-Bold-64" transform="translate(458.935547 0)"/>
     <use xlink:href="#DejaVuSans-Bold-20" transform="translate(530.517578 0)"/>
     <use xlink:href="#DejaVuSans-Bold-46" transform="translate(565.332031 0)"/>
     <use xlink:href="#DejaVuSans-Bold-72" transform="translate(627.267578 0)"/>
     <use xlink:href="#DejaVuSans-Bold-61" transform="translate(676.583984 0)"/>
     <use xlink:href="#DejaVuSans-Bold-6d" transform="translate(744.064453 0)"/>
     <use xlink:href="#DejaVuSans-Bold-65" transform="translate(848.263672 0)"/>
     <use xlink:href="#DejaVuSans-Bold-77" transform="translate(916.085938 0)"/>
     <use xlink:href="#DejaVuSans-Bold-6f" transform="translate(1008.46875 0)"/>
     <use xlink:href="#DejaVuSans-Bold-72" transform="translate(1077.169922 0)"/>
     <use xlink:href="#DejaVuSans-Bold-6b" transform="translate(1126.486328 0)"/>
    </g>
    <!-- (Closed-loop AGD) -->
    <g transform="translate(723.379078 86.076422) scale(0.15 -0.15)">
     <defs>
      <path id="DejaVuSans-Bold-43" d="M 4288 256 
Q 3956 84 3597 -3 
Q 3238 -91 2847 -91 
Q 1681 -91 1000 561 
Q 319 1213 319 2328 
Q 319 3447 1000 4098 
Q 1681 4750 2847 4750 
Q 3238 4750 3597 4662 
Q 3956 4575 4288 4403 
L 4288 3438 
Q 3953 3666 3628 3772 
Q 3303 3878 2944 3878 
Q 2300 3878 1931 3465 
Q 1563 3053 1563 2328 
Q 1563 1606 1931 1193 
Q 2300 781 2944 781 
Q 3303 781 3628 887 
Q 3953 994 4288 1222 
L 4288 256 
z
" transform="scale(0.015625)"/>
      <path id="DejaVuSans-Bold-41" d="M 3419 850 
L 1538 850 
L 1241 0 
L 31 0 
L 1759 4666 
L 3194 4666 
L 4922 0 
L 3713 0 
L 3419 850 
z
M 1838 1716 
L 3116 1716 
L 2478 3572 
L 1838 1716 
z
" transform="scale(0.015625)"/>
      <path id="DejaVuSans-Bold-47" d="M 4781 347 
Q 4331 128 3847 18 
Q 3363 -91 2847 -91 
Q 1681 -91 1000 561 
Q 319 1213 319 2328 
Q 319 3456 1012 4103 
Q 1706 4750 2913 4750 
Q 3378 4750 3804 4662 
Q 4231 4575 4609 4403 
L 4609 3438 
Q 4219 3659 3833 3768 
Q 3447 3878 3059 3878 
Q 2341 3878 1952 3476 
Q 1563 3075 1563 2328 
Q 1563 1588 1938 1184 
Q 2313 781 3003 781 
Q 3191 781 3352 804 
Q 3513 828 3641 878 
L 3641 1784 
L 2906 1784 
L 2906 2591 
L 4781 2591 
L 4781 347 
z
" transform="scale(0.015625)"/>
     </defs>
     <use xlink:href="#DejaVuSans-Bold-28"/>
     <use xlink:href="#DejaVuSans-Bold-43" transform="translate(45.703125 0)"/>
     <use xlink:href="#DejaVuSans-Bold-6c" transform="translate(119.091797 0)"/>
     <use xlink:href="#DejaVuSans-Bold-6f" transform="translate(153.369141 0)"/>
     <use xlink:href="#DejaVuSans-Bold-73" transform="translate(222.070312 0)"/>
     <use xlink:href="#DejaVuSans-Bold-65" transform="translate(281.591797 0)"/>
     <use xlink:href="#DejaVuSans-Bold-64" transform="translate(349.414062 0)"/>
     <use xlink:href="#DejaVuSans-Bold-2d" transform="translate(420.996094 0)"/>
     <use xlink:href="#DejaVuSans-Bold-6c" transform="translate(462.5 0)"/>
     <use xlink:href="#DejaVuSans-Bold-6f" transform="translate(496.777344 0)"/>
     <use xlink:href="#DejaVuSans-Bold-6f" transform="translate(565.478516 0)"/>
     <use xlink:href="#DejaVuSans-Bold-70" transform="translate(634.179688 0)"/>
     <use xlink:href="#DejaVuSans-Bold-20" transform="translate(705.761719 0)"/>
     <use xlink:href="#DejaVuSans-Bold-41" transform="translate(740.576172 0)"/>
     <use xlink:href="#DejaVuSans-Bold-47" transform="translate(817.96875 0)"/>
     <use xlink:href="#DejaVuSans-Bold-44" transform="translate(900.048828 0)"/>
     <use xlink:href="#DejaVuSans-Bold-29" transform="translate(983.056641 0)"/>
    </g>
   </g>
   <g id="text_3">
    <!-- Text Prompt (y) -->
    <g transform="translate(218.541961 109.559086) scale(0.105 -0.105)">
     <defs>
      <path id="DejaVuSans-Bold-78" d="M 1422 1791 
L 159 3500 
L 1344 3500 
L 2059 2463 
L 2784 3500 
L 3969 3500 
L 2706 1797 
L 4031 0 
L 2847 0 
L 2059 1106 
L 1281 0 
L 97 0 
L 1422 1791 
z
" transform="scale(0.015625)"/>
      <path id="DejaVuSans-Bold-79" d="M 78 3500 
L 1197 3500 
L 2138 1125 
L 2938 3500 
L 4056 3500 
L 2584 -331 
Q 2363 -916 2067 -1148 
Q 1772 -1381 1288 -1381 
L 641 -1381 
L 641 -647 
L 991 -647 
Q 1275 -647 1404 -556 
Q 1534 -466 1606 -231 
L 1638 -134 
L 78 3500 
z
" transform="scale(0.015625)"/>
     </defs>
     <use xlink:href="#DejaVuSans-Bold-54"/>
     <use xlink:href="#DejaVuSans-Bold-65" transform="translate(54.962891 0)"/>
     <use xlink:href="#DejaVuSans-Bold-78" transform="translate(122.785156 0)"/>
     <use xlink:href="#DejaVuSans-Bold-74" transform="translate(187.287109 0)"/>
     <use xlink:href="#DejaVuSans-Bold-20" transform="translate(235.089844 0)"/>
     <use xlink:href="#DejaVuSans-Bold-50" transform="translate(269.904297 0)"/>
     <use xlink:href="#DejaVuSans-Bold-72" transform="translate(343.195312 0)"/>
     <use xlink:href="#DejaVuSans-Bold-6f" transform="translate(392.511719 0)"/>
     <use xlink:href="#DejaVuSans-Bold-6d" transform="translate(461.212891 0)"/>
     <use xlink:href="#DejaVuSans-Bold-70" transform="translate(565.412109 0)"/>
     <use xlink:href="#DejaVuSans-Bold-74" transform="translate(636.994141 0)"/>
     <use xlink:href="#DejaVuSans-Bold-20" transform="translate(684.796875 0)"/>
     <use xlink:href="#DejaVuSans-Bold-28" transform="translate(719.611328 0)"/>
     <use xlink:href="#DejaVuSans-Bold-79" transform="translate(765.314453 0)"/>
     <use xlink:href="#DejaVuSans-Bold-29" transform="translate(830.5 0)"/>
    </g>
   </g>
   <g id="text_4">
    <!-- 2D Diffusion Model -->
    <g transform="translate(208.194539 172.522992) scale(0.105 -0.105)">
     <defs>
      <path id="DejaVuSans-Bold-32" d="M 1844 884 
L 3897 884 
L 3897 0 
L 506 0 
L 506 884 
L 2209 2388 
Q 2438 2594 2547 2791 
Q 2656 2988 2656 3200 
Q 2656 3528 2436 3728 
Q 2216 3928 1850 3928 
Q 1569 3928 1234 3808 
Q 900 3688 519 3450 
L 519 4475 
Q 925 4609 1322 4679 
Q 1719 4750 2100 4750 
Q 2938 4750 3402 4381 
Q 3866 4013 3866 3353 
Q 3866 2972 3669 2642 
Q 3472 2313 2841 1759 
L 1844 884 
z
" transform="scale(0.015625)"/>
      <path id="DejaVuSans-Bold-66" d="M 2841 4863 
L 2841 4128 
L 2222 4128 
Q 1984 4128 1890 4042 
Q 1797 3956 1797 3744 
L 1797 3500 
L 2753 3500 
L 2753 2700 
L 1797 2700 
L 1797 0 
L 678 0 
L 678 2700 
L 122 2700 
L 122 3500 
L 678 3500 
L 678 3744 
Q 678 4316 997 4589 
Q 1316 4863 1984 4863 
L 2841 4863 
z
" transform="scale(0.015625)"/>
      <path id="DejaVuSans-Bold-75" d="M 500 1363 
L 500 3500 
L 1625 3500 
L 1625 3150 
Q 1625 2866 1622 2436 
Q 1619 2006 1619 1863 
Q 1619 1441 1641 1255 
Q 1663 1069 1716 984 
Q 1784 875 1895 815 
Q 2006 756 2150 756 
Q 2500 756 2700 1025 
Q 2900 1294 2900 1772 
L 2900 3500 
L 4019 3500 
L 4019 0 
L 2900 0 
L 2900 506 
Q 2647 200 2364 54 
Q 2081 -91 1741 -91 
Q 1134 -91 817 281 
Q 500 653 500 1363 
z
" transform="scale(0.015625)"/>
      <path id="DejaVuSans-Bold-4d" d="M 588 4666 
L 2119 4666 
L 3181 2169 
L 4250 4666 
L 5778 4666 
L 5778 0 
L 4641 0 
L 4641 3413 
L 3566 897 
L 2803 897 
L 1728 3413 
L 1728 0 
L 588 0 
L 588 4666 
z
" transform="scale(0.015625)"/>
     </defs>
     <use xlink:href="#DejaVuSans-Bold-32"/>
     <use xlink:href="#DejaVuSans-Bold-44" transform="translate(69.580078 0)"/>
     <use xlink:href="#DejaVuSans-Bold-20" transform="translate(152.587891 0)"/>
     <use xlink:href="#DejaVuSans-Bold-44" transform="translate(187.402344 0)"/>
     <use xlink:href="#DejaVuSans-Bold-69" transform="translate(270.410156 0)"/>
     <use xlink:href="#DejaVuSans-Bold-66" transform="translate(304.6875 0)"/>
     <use xlink:href="#DejaVuSans-Bold-66" transform="translate(348.193359 0)"/>
     <use xlink:href="#DejaVuSans-Bold-75" transform="translate(391.699219 0)"/>
     <use xlink:href="#DejaVuSans-Bold-73" transform="translate(462.890625 0)"/>
     <use xlink:href="#DejaVuSans-Bold-69" transform="translate(522.412109 0)"/>
     <use xlink:href="#DejaVuSans-Bold-6f" transform="translate(556.689453 0)"/>
     <use xlink:href="#DejaVuSans-Bold-6e" transform="translate(625.390625 0)"/>
     <use xlink:href="#DejaVuSans-Bold-20" transform="translate(696.582031 0)"/>
     <use xlink:href="#DejaVuSans-Bold-4d" transform="translate(731.396484 0)"/>
     <use xlink:href="#DejaVuSans-Bold-6f" transform="translate(830.908203 0)"/>
     <use xlink:href="#DejaVuSans-Bold-64" transform="translate(899.609375 0)"/>
     <use xlink:href="#DejaVuSans-Bold-65" transform="translate(971.191406 0)"/>
     <use xlink:href="#DejaVuSans-Bold-6c" transform="translate(1039.013672 0)"/>
    </g>
    <!-- (Prior) -->
    <g transform="translate(245.311219 184.280695) scale(0.105 -0.105)">
     <use xlink:href="#DejaVuSans-Bold-28"/>
     <use xlink:href="#DejaVuSans-Bold-50" transform="translate(45.703125 0)"/>
     <use xlink:href="#DejaVuSans-Bold-72" transform="translate(118.994141 0)"/>
     <use xlink:href="#DejaVuSans-Bold-69" transform="translate(168.310547 0)"/>
     <use xlink:href="#DejaVuSans-Bold-6f" transform="translate(202.587891 0)"/>
     <use xlink:href="#DejaVuSans-Bold-72" transform="translate(271.289062 0)"/>
     <use xlink:href="#DejaVuSans-Bold-29" transform="translate(320.605469 0)"/>
    </g>
   </g>
   <g id="text_5">
    <!-- Score Distillation Sampling -->
    <g transform="translate(184.202859 241.236961) scale(0.105 -0.105)">
     <defs>
      <path id="DejaVuSans-Bold-63" d="M 3366 3391 
L 3366 2478 
Q 3138 2634 2908 2709 
Q 2678 2784 2431 2784 
Q 1963 2784 1702 2511 
Q 1441 2238 1441 1747 
Q 1441 1256 1702 982 
Q 1963 709 2431 709 
Q 2694 709 2930 787 
Q 3166 866 3366 1019 
L 3366 103 
Q 3103 6 2833 -42 
Q 2563 -91 2291 -91 
Q 1344 -91 809 395 
Q 275 881 275 1747 
Q 275 2613 809 3098 
Q 1344 3584 2291 3584 
Q 2566 3584 2833 3536 
Q 3100 3488 3366 3391 
z
" transform="scale(0.015625)"/>
      <path id="DejaVuSans-Bold-67" d="M 2919 594 
Q 2688 288 2409 144 
Q 2131 0 1766 0 
Q 1125 0 706 504 
Q 288 1009 288 1791 
Q 288 2575 706 3076 
Q 1125 3578 1766 3578 
Q 2131 3578 2409 3434 
Q 2688 3291 2919 2981 
L 2919 3500 
L 4044 3500 
L 4044 353 
Q 4044 -491 3511 -936 
Q 2978 -1381 1966 -1381 
Q 1638 -1381 1331 -1331 
Q 1025 -1281 716 -1178 
L 716 -306 
Q 1009 -475 1290 -558 
Q 1572 -641 1856 -641 
Q 2406 -641 2662 -400 
Q 2919 -159 2919 353 
L 2919 594 
z
M 2181 2772 
Q 1834 2772 1640 2515 
Q 1447 2259 1447 1791 
Q 1447 1309 1634 1061 
Q 1822 813 2181 813 
Q 2531 813 2725 1069 
Q 2919 1325 2919 1791 
Q 2919 2259 2725 2515 
Q 2531 2772 2181 2772 
z
" transform="scale(0.015625)"/>
     </defs>
     <use xlink:href="#DejaVuSans-Bold-53"/>
     <use xlink:href="#DejaVuSans-Bold-63" transform="translate(72.021484 0)"/>
     <use xlink:href="#DejaVuSans-Bold-6f" transform="translate(131.298828 0)"/>
     <use xlink:href="#DejaVuSans-Bold-72" transform="translate(200 0)"/>
     <use xlink:href="#DejaVuSans-Bold-65" transform="translate(249.316406 0)"/>
     <use xlink:href="#DejaVuSans-Bold-20" transform="translate(317.138672 0)"/>
     <use xlink:href="#DejaVuSans-Bold-44" transform="translate(351.953125 0)"/>
     <use xlink:href="#DejaVuSans-Bold-69" transform="translate(434.960938 0)"/>
     <use xlink:href="#DejaVuSans-Bold-73" transform="translate(469.238281 0)"/>
     <use xlink:href="#DejaVuSans-Bold-74" transform="translate(528.759766 0)"/>
     <use xlink:href="#DejaVuSans-Bold-69" transform="translate(576.5625 0)"/>
     <use xlink:href="#DejaVuSans-Bold-6c" transform="translate(610.839844 0)"/>
     <use xlink:href="#DejaVuSans-Bold-6c" transform="translate(645.117188 0)"/>
     <use xlink:href="#DejaVuSans-Bold-61" transform="translate(679.394531 0)"/>
     <use xlink:href="#DejaVuSans-Bold-74" transform="translate(746.875 0)"/>
     <use xlink:href="#DejaVuSans-Bold-69" transform="translate(794.677734 0)"/>
     <use xlink:href="#DejaVuSans-Bold-6f" transform="translate(828.955078 0)"/>
     <use xlink:href="#DejaVuSans-Bold-6e" transform="translate(897.65625 0)"/>
     <use xlink:href="#DejaVuSans-Bold-20" transform="translate(968.847656 0)"/>
     <use xlink:href="#DejaVuSans-Bold-53" transform="translate(1003.662109 0)"/>
     <use xlink:href="#DejaVuSans-Bold-61" transform="translate(1075.683594 0)"/>
     <use xlink:href="#DejaVuSans-Bold-6d" transform="translate(1143.164062 0)"/>
     <use xlink:href="#DejaVuSans-Bold-70" transform="translate(1247.363281 0)"/>
     <use xlink:href="#DejaVuSans-Bold-6c" transform="translate(1318.945312 0)"/>
     <use xlink:href="#DejaVuSans-Bold-69" transform="translate(1353.222656 0)"/>
     <use xlink:href="#DejaVuSans-Bold-6e" transform="translate(1387.5 0)"/>
     <use xlink:href="#DejaVuSans-Bold-67" transform="translate(1458.691406 0)"/>
    </g>
    <!-- (2D guidance only) -->
    <g transform="translate(208.504617 253.076695) scale(0.105 -0.105)">
     <use xlink:href="#DejaVuSans-Bold-28"/>
     <use xlink:href="#DejaVuSans-Bold-32" transform="translate(45.703125 0)"/>
     <use xlink:href="#DejaVuSans-Bold-44" transform="translate(115.283203 0)"/>
     <use xlink:href="#DejaVuSans-Bold-20" transform="translate(198.291016 0)"/>
     <use xlink:href="#DejaVuSans-Bold-67" transform="translate(233.105469 0)"/>
     <use xlink:href="#DejaVuSans-Bold-75" transform="translate(304.6875 0)"/>
     <use xlink:href="#DejaVuSans-Bold-69" transform="translate(375.878906 0)"/>
     <use xlink:href="#DejaVuSans-Bold-64" transform="translate(410.15625 0)"/>
     <use xlink:href="#DejaVuSans-Bold-61" transform="translate(481.738281 0)"/>
     <use xlink:href="#DejaVuSans-Bold-6e" transform="translate(549.21875 0)"/>
     <use xlink:href="#DejaVuSans-Bold-63" transform="translate(620.410156 0)"/>
     <use xlink:href="#DejaVuSans-Bold-65" transform="translate(679.6875 0)"/>
     <use xlink:href="#DejaVuSans-Bold-20" transform="translate(747.509766 0)"/>
     <use xlink:href="#DejaVuSans-Bold-6f" transform="translate(782.324219 0)"/>
     <use xlink:href="#DejaVuSans-Bold-6e" transform="translate(851.025391 0)"/>
     <use xlink:href="#DejaVuSans-Bold-6c" transform="translate(922.216797 0)"/>
     <use xlink:href="#DejaVuSans-Bold-79" transform="translate(956.494141 0)"/>
     <use xlink:href="#DejaVuSans-Bold-29" transform="translate(1021.679688 0)"/>
    </g>
   </g>
   <g id="text_6">
    <!-- 3D Optimizer -->
    <g transform="translate(225.697547 310.114992) scale(0.105 -0.105)">
     <defs>
      <path id="DejaVuSans-Bold-33" d="M 2981 2516 
Q 3453 2394 3698 2092 
Q 3944 1791 3944 1325 
Q 3944 631 3412 270 
Q 2881 -91 1863 -91 
Q 1503 -91 1142 -33 
Q 781 25 428 141 
L 428 1069 
Q 766 900 1098 814 
Q 1431 728 1753 728 
Q 2231 728 2486 893 
Q 2741 1059 2741 1369 
Q 2741 1688 2480 1852 
Q 2219 2016 1709 2016 
L 1228 2016 
L 1228 2791 
L 1734 2791 
Q 2188 2791 2409 2933 
Q 2631 3075 2631 3366 
Q 2631 3634 2415 3781 
Q 2200 3928 1806 3928 
Q 1516 3928 1219 3862 
Q 922 3797 628 3669 
L 628 4550 
Q 984 4650 1334 4700 
Q 1684 4750 2022 4750 
Q 2931 4750 3382 4451 
Q 3834 4153 3834 3553 
Q 3834 3144 3618 2883 
Q 3403 2622 2981 2516 
z
" transform="scale(0.015625)"/>
      <path id="DejaVuSans-Bold-7a" d="M 366 3500 
L 3419 3500 
L 3419 2719 
L 1575 800 
L 3419 800 
L 3419 0 
L 288 0 
L 288 781 
L 2131 2700 
L 366 2700 
L 366 3500 
z
" transform="scale(0.015625)"/>
     </defs>
     <use xlink:href="#DejaVuSans-Bold-33"/>
     <use xlink:href="#DejaVuSans-Bold-44" transform="translate(69.580078 0)"/>
     <use xlink:href="#DejaVuSans-Bold-20" transform="translate(152.587891 0)"/>
     <use xlink:href="#DejaVuSans-Bold-4f" transform="translate(187.402344 0)"/>
     <use xlink:href="#DejaVuSans-Bold-70" transform="translate(272.412109 0)"/>
     <use xlink:href="#DejaVuSans-Bold-74" transform="translate(343.994141 0)"/>
     <use xlink:href="#DejaVuSans-Bold-69" transform="translate(391.796875 0)"/>
     <use xlink:href="#DejaVuSans-Bold-6d" transform="translate(426.074219 0)"/>
     <use xlink:href="#DejaVuSans-Bold-69" transform="translate(530.273438 0)"/>
     <use xlink:href="#DejaVuSans-Bold-7a" transform="translate(564.550781 0)"/>
     <use xlink:href="#DejaVuSans-Bold-65" transform="translate(622.753906 0)"/>
     <use xlink:href="#DejaVuSans-Bold-72" transform="translate(690.576172 0)"/>
    </g>
    <!-- (Unconstrained) -->
    <g transform="translate(216.665086 321.872695) scale(0.105 -0.105)">
     <defs>
      <path id="DejaVuSans-Bold-55" d="M 588 4666 
L 1791 4666 
L 1791 1869 
Q 1791 1291 1980 1042 
Q 2169 794 2597 794 
Q 3028 794 3217 1042 
Q 3406 1291 3406 1869 
L 3406 4666 
L 4609 4666 
L 4609 1869 
Q 4609 878 4112 393 
Q 3616 -91 2597 -91 
Q 1581 -91 1084 393 
Q 588 878 588 1869 
L 588 4666 
z
" transform="scale(0.015625)"/>
     </defs>
     <use xlink:href="#DejaVuSans-Bold-28"/>
     <use xlink:href="#DejaVuSans-Bold-55" transform="translate(45.703125 0)"/>
     <use xlink:href="#DejaVuSans-Bold-6e" transform="translate(126.904297 0)"/>
     <use xlink:href="#DejaVuSans-Bold-63" transform="translate(198.095703 0)"/>
     <use xlink:href="#DejaVuSans-Bold-6f" transform="translate(257.373047 0)"/>
     <use xlink:href="#DejaVuSans-Bold-6e" transform="translate(326.074219 0)"/>
     <use xlink:href="#DejaVuSans-Bold-73" transform="translate(397.265625 0)"/>
     <use xlink:href="#DejaVuSans-Bold-74" transform="translate(456.787109 0)"/>
     <use xlink:href="#DejaVuSans-Bold-72" transform="translate(504.589844 0)"/>
     <use xlink:href="#DejaVuSans-Bold-61" transform="translate(553.90625 0)"/>
     <use xlink:href="#DejaVuSans-Bold-69" transform="translate(621.386719 0)"/>
     <use xlink:href="#DejaVuSans-Bold-6e" transform="translate(655.664062 0)"/>
     <use xlink:href="#DejaVuSans-Bold-65" transform="translate(726.855469 0)"/>
     <use xlink:href="#DejaVuSans-Bold-64" transform="translate(794.677734 0)"/>
     <use xlink:href="#DejaVuSans-Bold-29" transform="translate(866.259766 0)"/>
    </g>
   </g>
   <g id="text_7">
    <!-- 3D Mesh Output -->
    <g transform="translate(216.514148 378.910992) scale(0.105 -0.105)">
     <defs>
      <path id="DejaVuSans-Bold-68" d="M 4056 2131 
L 4056 0 
L 2931 0 
L 2931 347 
L 2931 1625 
Q 2931 2084 2911 2256 
Q 2891 2428 2841 2509 
Q 2775 2619 2662 2680 
Q 2550 2741 2406 2741 
Q 2056 2741 1856 2470 
Q 1656 2200 1656 1722 
L 1656 0 
L 538 0 
L 538 4863 
L 1656 4863 
L 1656 2988 
Q 1909 3294 2193 3439 
Q 2478 3584 2822 3584 
Q 3428 3584 3742 3212 
Q 4056 2841 4056 2131 
z
" transform="scale(0.015625)"/>
     </defs>
     <use xlink:href="#DejaVuSans-Bold-33"/>
     <use xlink:href="#DejaVuSans-Bold-44" transform="translate(69.580078 0)"/>
     <use xlink:href="#DejaVuSans-Bold-20" transform="translate(152.587891 0)"/>
     <use xlink:href="#DejaVuSans-Bold-4d" transform="translate(187.402344 0)"/>
     <use xlink:href="#DejaVuSans-Bold-65" transform="translate(286.914062 0)"/>
     <use xlink:href="#DejaVuSans-Bold-73" transform="translate(354.736328 0)"/>
     <use xlink:href="#DejaVuSans-Bold-68" transform="translate(414.257812 0)"/>
     <use xlink:href="#DejaVuSans-Bold-20" transform="translate(485.449219 0)"/>
     <use xlink:href="#DejaVuSans-Bold-4f" transform="translate(520.263672 0)"/>
     <use xlink:href="#DejaVuSans-Bold-75" transform="translate(605.273438 0)"/>
     <use xlink:href="#DejaVuSans-Bold-74" transform="translate(676.464844 0)"/>
     <use xlink:href="#DejaVuSans-Bold-70" transform="translate(724.267578 0)"/>
     <use xlink:href="#DejaVuSans-Bold-75" transform="translate(795.849609 0)"/>
     <use xlink:href="#DejaVuSans-Bold-74" transform="translate(867.041016 0)"/>
    </g>
    <!-- (Hallucination-prone) -->
    <g transform="translate(201.193992 390.668695) scale(0.105 -0.105)">
     <defs>
      <path id="DejaVuSans-Bold-48" d="M 588 4666 
L 1791 4666 
L 1791 2888 
L 3566 2888 
L 3566 4666 
L 4769 4666 
L 4769 0 
L 3566 0 
L 3566 1978 
L 1791 1978 
L 1791 0 
L 588 0 
L 588 4666 
z
" transform="scale(0.015625)"/>
     </defs>
     <use xlink:href="#DejaVuSans-Bold-28"/>
     <use xlink:href="#DejaVuSans-Bold-48" transform="translate(45.703125 0)"/>
     <use xlink:href="#DejaVuSans-Bold-61" transform="translate(129.394531 0)"/>
     <use xlink:href="#DejaVuSans-Bold-6c" transform="translate(196.875 0)"/>
     <use xlink:href="#DejaVuSans-Bold-6c" transform="translate(231.152344 0)"/>
     <use xlink:href="#DejaVuSans-Bold-75" transform="translate(265.429688 0)"/>
     <use xlink:href="#DejaVuSans-Bold-63" transform="translate(336.621094 0)"/>
     <use xlink:href="#DejaVuSans-Bold-69" transform="translate(395.898438 0)"/>
     <use xlink:href="#DejaVuSans-Bold-6e" transform="translate(430.175781 0)"/>
     <use xlink:href="#DejaVuSans-Bold-61" transform="translate(501.367188 0)"/>
     <use xlink:href="#DejaVuSans-Bold-74" transform="translate(568.847656 0)"/>
     <use xlink:href="#DejaVuSans-Bold-69" transform="translate(616.650391 0)"/>
     <use xlink:href="#DejaVuSans-Bold-6f" transform="translate(650.927734 0)"/>
     <use xlink:href="#DejaVuSans-Bold-6e" transform="translate(719.628906 0)"/>
     <use xlink:href="#DejaVuSans-Bold-2d" transform="translate(790.820312 0)"/>
     <use xlink:href="#DejaVuSans-Bold-70" transform="translate(832.324219 0)"/>
     <use xlink:href="#DejaVuSans-Bold-72" transform="translate(903.90625 0)"/>
     <use xlink:href="#DejaVuSans-Bold-6f" transform="translate(953.222656 0)"/>
     <use xlink:href="#DejaVuSans-Bold-6e" transform="translate(1021.923828 0)"/>
     <use xlink:href="#DejaVuSans-Bold-65" transform="translate(1093.115234 0)"/>
     <use xlink:href="#DejaVuSans-Bold-29" transform="translate(1160.9375 0)"/>
    </g>
   </g>
   <g id="text_8">
    <g id="patch_29">
     <path d="M 168.232872 447.747937 
L 361.508028 447.747937 
Q 364.258028 447.747937 364.258028 444.997937 
L 364.258028 434.266062 
Q 364.258028 431.516062 361.508028 431.516062 
L 168.232872 431.516062 
Q 165.482872 431.516062 165.482872 434.266062 
L 165.482872 444.997937 
Q 165.482872 447.747937 168.232872 447.747937 
z
" style="fill: #ffffff; stroke: #b91c1c; stroke-width: 1.5; stroke-linejoin: miter"/>
    </g>
    <!-- No explicit geometric feedback -->
    <g style="fill: #b91c1c" transform="translate(168.232872 442.624344) scale(0.11 -0.11)">
     <defs>
      <path id="DejaVuSans-Bold-4e" d="M 588 4666 
L 1931 4666 
L 3628 1466 
L 3628 4666 
L 4769 4666 
L 4769 0 
L 3425 0 
L 1728 3200 
L 1728 0 
L 588 0 
L 588 4666 
z
" transform="scale(0.015625)"/>
      <path id="DejaVuSans-Bold-62" d="M 2400 722 
Q 2759 722 2948 984 
Q 3138 1247 3138 1747 
Q 3138 2247 2948 2509 
Q 2759 2772 2400 2772 
Q 2041 2772 1848 2508 
Q 1656 2244 1656 1747 
Q 1656 1250 1848 986 
Q 2041 722 2400 722 
z
M 1656 2988 
Q 1888 3294 2169 3439 
Q 2450 3584 2816 3584 
Q 3463 3584 3878 3070 
Q 4294 2556 4294 1747 
Q 4294 938 3878 423 
Q 3463 -91 2816 -91 
Q 2450 -91 2169 54 
Q 1888 200 1656 506 
L 1656 0 
L 538 0 
L 538 4863 
L 1656 4863 
L 1656 2988 
z
" transform="scale(0.015625)"/>
     </defs>
     <use xlink:href="#DejaVuSans-Bold-4e"/>
     <use xlink:href="#DejaVuSans-Bold-6f" transform="translate(83.691406 0)"/>
     <use xlink:href="#DejaVuSans-Bold-20" transform="translate(152.392578 0)"/>
     <use xlink:href="#DejaVuSans-Bold-65" transform="translate(187.207031 0)"/>
     <use xlink:href="#DejaVuSans-Bold-78" transform="translate(255.029297 0)"/>
     <use xlink:href="#DejaVuSans-Bold-70" transform="translate(319.53125 0)"/>
     <use xlink:href="#DejaVuSans-Bold-6c" transform="translate(391.113281 0)"/>
     <use xlink:href="#DejaVuSans-Bold-69" transform="translate(425.390625 0)"/>
     <use xlink:href="#DejaVuSans-Bold-63" transform="translate(459.667969 0)"/>
     <use xlink:href="#DejaVuSans-Bold-69" transform="translate(518.945312 0)"/>
     <use xlink:href="#DejaVuSans-Bold-74" transform="translate(553.222656 0)"/>
     <use xlink:href="#DejaVuSans-Bold-20" transform="translate(601.025391 0)"/>
     <use xlink:href="#DejaVuSans-Bold-67" transform="translate(635.839844 0)"/>
     <use xlink:href="#DejaVuSans-Bold-65" transform="translate(707.421875 0)"/>
     <use xlink:href="#DejaVuSans-Bold-6f" transform="translate(775.244141 0)"/>
     <use xlink:href="#DejaVuSans-Bold-6d" transform="translate(843.945312 0)"/>
     <use xlink:href="#DejaVuSans-Bold-65" transform="translate(948.144531 0)"/>
     <use xlink:href="#DejaVuSans-Bold-74" transform="translate(1015.966797 0)"/>
     <use xlink:href="#DejaVuSans-Bold-72" transform="translate(1063.769531 0)"/>
     <use xlink:href="#DejaVuSans-Bold-69" transform="translate(1113.085938 0)"/>
     <use xlink:href="#DejaVuSans-Bold-63" transform="translate(1147.363281 0)"/>
     <use xlink:href="#DejaVuSans-Bold-20" transform="translate(1206.640625 0)"/>
     <use xlink:href="#DejaVuSans-Bold-66" transform="translate(1241.455078 0)"/>
     <use xlink:href="#DejaVuSans-Bold-65" transform="translate(1284.960938 0)"/>
     <use xlink:href="#DejaVuSans-Bold-65" transform="translate(1352.783203 0)"/>
     <use xlink:href="#DejaVuSans-Bold-64" transform="translate(1420.605469 0)"/>
     <use xlink:href="#DejaVuSans-Bold-62" transform="translate(1492.1875 0)"/>
     <use xlink:href="#DejaVuSans-Bold-61" transform="translate(1563.769531 0)"/>
     <use xlink:href="#DejaVuSans-Bold-63" transform="translate(1631.25 0)"/>
     <use xlink:href="#DejaVuSans-Bold-6b" transform="translate(1690.527344 0)"/>
    </g>
   </g>
   <g id="text_9">
    <!-- Text Prompt (y) -->
    <g transform="translate(743.061961 109.559086) scale(0.105 -0.105)">
     <use xlink:href="#DejaVuSans-Bold-54"/>
     <use xlink:href="#DejaVuSans-Bold-65" transform="translate(54.962891 0)"/>
     <use xlink:href="#DejaVuSans-Bold-78" transform="translate(122.785156 0)"/>
     <use xlink:href="#DejaVuSans-Bold-74" transform="translate(187.287109 0)"/>
     <use xlink:href="#DejaVuSans-Bold-20" transform="translate(235.089844 0)"/>
     <use xlink:href="#DejaVuSans-Bold-50" transform="translate(269.904297 0)"/>
     <use xlink:href="#DejaVuSans-Bold-72" transform="translate(343.195312 0)"/>
     <use xlink:href="#DejaVuSans-Bold-6f" transform="translate(392.511719 0)"/>
     <use xlink:href="#DejaVuSans-Bold-6d" transform="translate(461.212891 0)"/>
     <use xlink:href="#DejaVuSans-Bold-70" transform="translate(565.412109 0)"/>
     <use xlink:href="#DejaVuSans-Bold-74" transform="translate(636.994141 0)"/>
     <use xlink:href="#DejaVuSans-Bold-20" transform="translate(684.796875 0)"/>
     <use xlink:href="#DejaVuSans-Bold-28" transform="translate(719.611328 0)"/>
     <use xlink:href="#DejaVuSans-Bold-79" transform="translate(765.314453 0)"/>
     <use xlink:href="#DejaVuSans-Bold-29" transform="translate(830.5 0)"/>
    </g>
   </g>
   <g id="text_10">
    <!-- 2D Diffusion Model -->
    <g transform="translate(732.714539 172.481977) scale(0.105 -0.105)">
     <use xlink:href="#DejaVuSans-Bold-32"/>
     <use xlink:href="#DejaVuSans-Bold-44" transform="translate(69.580078 0)"/>
     <use xlink:href="#DejaVuSans-Bold-20" transform="translate(152.587891 0)"/>
     <use xlink:href="#DejaVuSans-Bold-44" transform="translate(187.402344 0)"/>
     <use xlink:href="#DejaVuSans-Bold-69" transform="translate(270.410156 0)"/>
     <use xlink:href="#DejaVuSans-Bold-66" transform="translate(304.6875 0)"/>
     <use xlink:href="#DejaVuSans-Bold-66" transform="translate(348.193359 0)"/>
     <use xlink:href="#DejaVuSans-Bold-75" transform="translate(391.699219 0)"/>
     <use xlink:href="#DejaVuSans-Bold-73" transform="translate(462.890625 0)"/>
     <use xlink:href="#DejaVuSans-Bold-69" transform="translate(522.412109 0)"/>
     <use xlink:href="#DejaVuSans-Bold-6f" transform="translate(556.689453 0)"/>
     <use xlink:href="#DejaVuSans-Bold-6e" transform="translate(625.390625 0)"/>
     <use xlink:href="#DejaVuSans-Bold-20" transform="translate(696.582031 0)"/>
     <use xlink:href="#DejaVuSans-Bold-4d" transform="translate(731.396484 0)"/>
     <use xlink:href="#DejaVuSans-Bold-6f" transform="translate(830.908203 0)"/>
     <use xlink:href="#DejaVuSans-Bold-64" transform="translate(899.609375 0)"/>
     <use xlink:href="#DejaVuSans-Bold-65" transform="translate(971.191406 0)"/>
     <use xlink:href="#DejaVuSans-Bold-6c" transform="translate(1039.013672 0)"/>
    </g>
    <!-- (SDS guidance) -->
    <g transform="translate(743.509852 184.23968) scale(0.105 -0.105)">
     <use xlink:href="#DejaVuSans-Bold-28"/>
     <use xlink:href="#DejaVuSans-Bold-53" transform="translate(45.703125 0)"/>
     <use xlink:href="#DejaVuSans-Bold-44" transform="translate(117.724609 0)"/>
     <use xlink:href="#DejaVuSans-Bold-53" transform="translate(200.732422 0)"/>
     <use xlink:href="#DejaVuSans-Bold-20" transform="translate(272.753906 0)"/>
     <use xlink:href="#DejaVuSans-Bold-67" transform="translate(307.568359 0)"/>
     <use xlink:href="#DejaVuSans-Bold-75" transform="translate(379.150391 0)"/>
     <use xlink:href="#DejaVuSans-Bold-69" transform="translate(450.341797 0)"/>
     <use xlink:href="#DejaVuSans-Bold-64" transform="translate(484.619141 0)"/>
     <use xlink:href="#DejaVuSans-Bold-61" transform="translate(556.201172 0)"/>
     <use xlink:href="#DejaVuSans-Bold-6e" transform="translate(623.681641 0)"/>
     <use xlink:href="#DejaVuSans-Bold-63" transform="translate(694.873047 0)"/>
     <use xlink:href="#DejaVuSans-Bold-65" transform="translate(754.150391 0)"/>
     <use xlink:href="#DejaVuSans-Bold-29" transform="translate(821.972656 0)"/>
    </g>
   </g>
   <g id="text_11">
    <!-- 3D Optimizer -->
    <g transform="translate(750.217547 241.277977) scale(0.105 -0.105)">
     <use xlink:href="#DejaVuSans-Bold-33"/>
     <use xlink:href="#DejaVuSans-Bold-44" transform="translate(69.580078 0)"/>
     <use xlink:href="#DejaVuSans-Bold-20" transform="translate(152.587891 0)"/>
     <use xlink:href="#DejaVuSans-Bold-4f" transform="translate(187.402344 0)"/>
     <use xlink:href="#DejaVuSans-Bold-70" transform="translate(272.412109 0)"/>
     <use xlink:href="#DejaVuSans-Bold-74" transform="translate(343.994141 0)"/>
     <use xlink:href="#DejaVuSans-Bold-69" transform="translate(391.796875 0)"/>
     <use xlink:href="#DejaVuSans-Bold-6d" transform="translate(426.074219 0)"/>
     <use xlink:href="#DejaVuSans-Bold-69" transform="translate(530.273438 0)"/>
     <use xlink:href="#DejaVuSans-Bold-7a" transform="translate(564.550781 0)"/>
     <use xlink:href="#DejaVuSans-Bold-65" transform="translate(622.753906 0)"/>
     <use xlink:href="#DejaVuSans-Bold-72" transform="translate(690.576172 0)"/>
    </g>
    <!-- (with grounded constraint) -->
    <g transform="translate(708.937781 253.03568) scale(0.105 -0.105)">
     <use xlink:href="#DejaVuSans-Bold-28"/>
     <use xlink:href="#DejaVuSans-Bold-77" transform="translate(45.703125 0)"/>
     <use xlink:href="#DejaVuSans-Bold-69" transform="translate(138.085938 0)"/>
     <use xlink:href="#DejaVuSans-Bold-74" transform="translate(172.363281 0)"/>
     <use xlink:href="#DejaVuSans-Bold-68" transform="translate(220.166016 0)"/>
     <use xlink:href="#DejaVuSans-Bold-20" transform="translate(291.357422 0)"/>
     <use xlink:href="#DejaVuSans-Bold-67" transform="translate(326.171875 0)"/>
     <use xlink:href="#DejaVuSans-Bold-72" transform="translate(397.753906 0)"/>
     <use xlink:href="#DejaVuSans-Bold-6f" transform="translate(447.070312 0)"/>
     <use xlink:href="#DejaVuSans-Bold-75" transform="translate(515.771484 0)"/>
     <use xlink:href="#DejaVuSans-Bold-6e" transform="translate(586.962891 0)"/>
     <use xlink:href="#DejaVuSans-Bold-64" transform="translate(658.154297 0)"/>
     <use xlink:href="#DejaVuSans-Bold-65" transform="translate(729.736328 0)"/>
     <use xlink:href="#DejaVuSans-Bold-64" transform="translate(797.558594 0)"/>
     <use xlink:href="#DejaVuSans-Bold-20" transform="translate(869.140625 0)"/>
     <use xlink:href="#DejaVuSans-Bold-63" transform="translate(903.955078 0)"/>
     <use xlink:href="#DejaVuSans-Bold-6f" transform="translate(963.232422 0)"/>
     <use xlink:href="#DejaVuSans-Bold-6e" transform="translate(1031.933594 0)"/>
     <use xlink:href="#DejaVuSans-Bold-73" transform="translate(1103.125 0)"/>
     <use xlink:href="#DejaVuSans-Bold-74" transform="translate(1162.646484 0)"/>
     <use xlink:href="#DejaVuSans-Bold-72" transform="translate(1210.449219 0)"/>
     <use xlink:href="#DejaVuSans-Bold-61" transform="translate(1259.765625 0)"/>
     <use xlink:href="#DejaVuSans-Bold-69" transform="translate(1327.246094 0)"/>
     <use xlink:href="#DejaVuSans-Bold-6e" transform="translate(1361.523438 0)"/>
     <use xlink:href="#DejaVuSans-Bold-74" transform="translate(1432.714844 0)"/>
     <use xlink:href="#DejaVuSans-Bold-29" transform="translate(1480.517578 0)"/>
    </g>
   </g>
   <g id="text_12">
    <!-- Intermediate 3D Mesh -->
    <g transform="translate(723.196453 315.993844) scale(0.105 -0.105)">
     <defs>
      <path id="DejaVuSans-Bold-49" d="M 588 4666 
L 1791 4666 
L 1791 0 
L 588 0 
L 588 4666 
z
" transform="scale(0.015625)"/>
     </defs>
     <use xlink:href="#DejaVuSans-Bold-49"/>
     <use xlink:href="#DejaVuSans-Bold-6e" transform="translate(37.207031 0)"/>
     <use xlink:href="#DejaVuSans-Bold-74" transform="translate(108.398438 0)"/>
     <use xlink:href="#DejaVuSans-Bold-65" transform="translate(156.201172 0)"/>
     <use xlink:href="#DejaVuSans-Bold-72" transform="translate(224.023438 0)"/>
     <use xlink:href="#DejaVuSans-Bold-6d" transform="translate(273.339844 0)"/>
     <use xlink:href="#DejaVuSans-Bold-65" transform="translate(377.539062 0)"/>
     <use xlink:href="#DejaVuSans-Bold-64" transform="translate(445.361328 0)"/>
     <use xlink:href="#DejaVuSans-Bold-69" transform="translate(516.943359 0)"/>
     <use xlink:href="#DejaVuSans-Bold-61" transform="translate(551.220703 0)"/>
     <use xlink:href="#DejaVuSans-Bold-74" transform="translate(618.701172 0)"/>
     <use xlink:href="#DejaVuSans-Bold-65" transform="translate(666.503906 0)"/>
     <use xlink:href="#DejaVuSans-Bold-20" transform="translate(734.326172 0)"/>
     <use xlink:href="#DejaVuSans-Bold-33" transform="translate(769.140625 0)"/>
     <use xlink:href="#DejaVuSans-Bold-44" transform="translate(838.720703 0)"/>
     <use xlink:href="#DejaVuSans-Bold-20" transform="translate(921.728516 0)"/>
     <use xlink:href="#DejaVuSans-Bold-4d" transform="translate(956.542969 0)"/>
     <use xlink:href="#DejaVuSans-Bold-65" transform="translate(1056.054688 0)"/>
     <use xlink:href="#DejaVuSans-Bold-73" transform="translate(1123.876953 0)"/>
     <use xlink:href="#DejaVuSans-Bold-68" transform="translate(1183.398438 0)"/>
    </g>
   </g>
   <g id="text_13">
    <!-- Refined 3D Mesh -->
    <g transform="translate(739.005516 378.869977) scale(0.105 -0.105)">
     <defs>
      <path id="DejaVuSans-Bold-52" d="M 2297 2597 
Q 2675 2597 2839 2737 
Q 3003 2878 3003 3200 
Q 3003 3519 2839 3656 
Q 2675 3794 2297 3794 
L 1791 3794 
L 1791 2597 
L 2297 2597 
z
M 1791 1766 
L 1791 0 
L 588 0 
L 588 4666 
L 2425 4666 
Q 3347 4666 3776 4356 
Q 4206 4047 4206 3378 
Q 4206 2916 3982 2619 
Q 3759 2322 3309 2181 
Q 3556 2125 3751 1926 
Q 3947 1728 4147 1325 
L 4800 0 
L 3519 0 
L 2950 1159 
Q 2778 1509 2601 1637 
Q 2425 1766 2131 1766 
L 1791 1766 
z
" transform="scale(0.015625)"/>
     </defs>
     <use xlink:href="#DejaVuSans-Bold-52"/>
     <use xlink:href="#DejaVuSans-Bold-65" transform="translate(77.001953 0)"/>
     <use xlink:href="#DejaVuSans-Bold-66" transform="translate(144.824219 0)"/>
     <use xlink:href="#DejaVuSans-Bold-69" transform="translate(188.330078 0)"/>
     <use xlink:href="#DejaVuSans-Bold-6e" transform="translate(222.607422 0)"/>
     <use xlink:href="#DejaVuSans-Bold-65" transform="translate(293.798828 0)"/>
     <use xlink:href="#DejaVuSans-Bold-64" transform="translate(361.621094 0)"/>
     <use xlink:href="#DejaVuSans-Bold-20" transform="translate(433.203125 0)"/>
     <use xlink:href="#DejaVuSans-Bold-33" transform="translate(468.017578 0)"/>
     <use xlink:href="#DejaVuSans-Bold-44" transform="translate(537.597656 0)"/>
     <use xlink:href="#DejaVuSans-Bold-20" transform="translate(620.605469 0)"/>
     <use xlink:href="#DejaVuSans-Bold-4d" transform="translate(655.419922 0)"/>
     <use xlink:href="#DejaVuSans-Bold-65" transform="translate(754.931641 0)"/>
     <use xlink:href="#DejaVuSans-Bold-73" transform="translate(822.753906 0)"/>
     <use xlink:href="#DejaVuSans-Bold-68" transform="translate(882.275391 0)"/>
    </g>
    <!-- (Geometrically consistent) -->
    <g transform="translate(710.530008 390.62768) scale(0.105 -0.105)">
     <use xlink:href="#DejaVuSans-Bold-28"/>
     <use xlink:href="#DejaVuSans-Bold-47" transform="translate(45.703125 0)"/>
     <use xlink:href="#DejaVuSans-Bold-65" transform="translate(127.783203 0)"/>
     <use xlink:href="#DejaVuSans-Bold-6f" transform="translate(195.605469 0)"/>
     <use xlink:href="#DejaVuSans-Bold-6d" transform="translate(264.306641 0)"/>
     <use xlink:href="#DejaVuSans-Bold-65" transform="translate(368.505859 0)"/>
     <use xlink:href="#DejaVuSans-Bold-74" transform="translate(436.328125 0)"/>
     <use xlink:href="#DejaVuSans-Bold-72" transform="translate(484.130859 0)"/>
     <use xlink:href="#DejaVuSans-Bold-69" transform="translate(533.447266 0)"/>
     <use xlink:href="#DejaVuSans-Bold-63" transform="translate(567.724609 0)"/>
     <use xlink:href="#DejaVuSans-Bold-61" transform="translate(627.001953 0)"/>
     <use xlink:href="#DejaVuSans-Bold-6c" transform="translate(694.482422 0)"/>
     <use xlink:href="#DejaVuSans-Bold-6c" transform="translate(728.759766 0)"/>
     <use xlink:href="#DejaVuSans-Bold-79" transform="translate(763.037109 0)"/>
     <use xlink:href="#DejaVuSans-Bold-20" transform="translate(828.222656 0)"/>
     <use xlink:href="#DejaVuSans-Bold-63" transform="translate(863.037109 0)"/>
     <use xlink:href="#DejaVuSans-Bold-6f" transform="translate(922.314453 0)"/>
     <use xlink:href="#DejaVuSans-Bold-6e" transform="translate(991.015625 0)"/>
     <use xlink:href="#DejaVuSans-Bold-73" transform="translate(1062.207031 0)"/>
     <use xlink:href="#DejaVuSans-Bold-69" transform="translate(1121.728516 0)"/>
     <use xlink:href="#DejaVuSans-Bold-73" transform="translate(1156.005859 0)"/>
     <use xlink:href="#DejaVuSans-Bold-74" transform="translate(1215.527344 0)"/>
     <use xlink:href="#DejaVuSans-Bold-65" transform="translate(1263.330078 0)"/>
     <use xlink:href="#DejaVuSans-Bold-6e" transform="translate(1331.152344 0)"/>
     <use xlink:href="#DejaVuSans-Bold-74" transform="translate(1402.34375 0)"/>
     <use xlink:href="#DejaVuSans-Bold-29" transform="translate(1450.146484 0)"/>
    </g>
   </g>
   <g id="text_14">
    <!-- Multi-view -->
    <g transform="translate(898.97575 183.230069) scale(0.1 -0.1)">
     <defs>
      <path id="DejaVuSans-Bold-76" d="M 97 3500 
L 1216 3500 
L 2088 1081 
L 2956 3500 
L 4078 3500 
L 2700 0 
L 1472 0 
L 97 3500 
z
" transform="scale(0.015625)"/>
     </defs>
     <use xlink:href="#DejaVuSans-Bold-4d"/>
     <use xlink:href="#DejaVuSans-Bold-75" transform="translate(99.511719 0)"/>
     <use xlink:href="#DejaVuSans-Bold-6c" transform="translate(170.703125 0)"/>
     <use xlink:href="#DejaVuSans-Bold-74" transform="translate(204.980469 0)"/>
     <use xlink:href="#DejaVuSans-Bold-69" transform="translate(252.783203 0)"/>
     <use xlink:href="#DejaVuSans-Bold-2d" transform="translate(287.060547 0)"/>
     <use xlink:href="#DejaVuSans-Bold-76" transform="translate(328.564453 0)"/>
     <use xlink:href="#DejaVuSans-Bold-69" transform="translate(393.75 0)"/>
     <use xlink:href="#DejaVuSans-Bold-65" transform="translate(428.027344 0)"/>
     <use xlink:href="#DejaVuSans-Bold-77" transform="translate(495.849609 0)"/>
    </g>
    <!-- Renderer -->
    <g transform="translate(902.2945 194.427881) scale(0.1 -0.1)">
     <use xlink:href="#DejaVuSans-Bold-52"/>
     <use xlink:href="#DejaVuSans-Bold-65" transform="translate(77.001953 0)"/>
     <use xlink:href="#DejaVuSans-Bold-6e" transform="translate(144.824219 0)"/>
     <use xlink:href="#DejaVuSans-Bold-64" transform="translate(216.015625 0)"/>
     <use xlink:href="#DejaVuSans-Bold-65" transform="translate(287.597656 0)"/>
     <use xlink:href="#DejaVuSans-Bold-72" transform="translate(355.419922 0)"/>
     <use xlink:href="#DejaVuSans-Bold-65" transform="translate(404.736328 0)"/>
     <use xlink:href="#DejaVuSans-Bold-72" transform="translate(472.558594 0)"/>
    </g>
   </g>
   <g id="text_15">
    <!-- LMM Detector + -->
    <g transform="translate(883.001531 232.370069) scale(0.1 -0.1)">
     <defs>
      <path id="DejaVuSans-Bold-4c" d="M 588 4666 
L 1791 4666 
L 1791 909 
L 3903 909 
L 3903 0 
L 588 0 
L 588 4666 
z
" transform="scale(0.015625)"/>
      <path id="DejaVuSans-Bold-2b" d="M 3053 4013 
L 3053 2375 
L 4684 2375 
L 4684 1638 
L 3053 1638 
L 3053 0 
L 2309 0 
L 2309 1638 
L 678 1638 
L 678 2375 
L 2309 2375 
L 2309 4013 
L 3053 4013 
z
" transform="scale(0.015625)"/>
     </defs>
     <use xlink:href="#DejaVuSans-Bold-4c"/>
     <use xlink:href="#DejaVuSans-Bold-4d" transform="translate(63.720703 0)"/>
     <use xlink:href="#DejaVuSans-Bold-4d" transform="translate(163.232422 0)"/>
     <use xlink:href="#DejaVuSans-Bold-20" transform="translate(262.744141 0)"/>
     <use xlink:href="#DejaVuSans-Bold-44" transform="translate(297.558594 0)"/>
     <use xlink:href="#DejaVuSans-Bold-65" transform="translate(380.566406 0)"/>
     <use xlink:href="#DejaVuSans-Bold-74" transform="translate(448.388672 0)"/>
     <use xlink:href="#DejaVuSans-Bold-65" transform="translate(496.191406 0)"/>
     <use xlink:href="#DejaVuSans-Bold-63" transform="translate(564.013672 0)"/>
     <use xlink:href="#DejaVuSans-Bold-74" transform="translate(623.291016 0)"/>
     <use xlink:href="#DejaVuSans-Bold-6f" transform="translate(671.09375 0)"/>
     <use xlink:href="#DejaVuSans-Bold-72" transform="translate(739.794922 0)"/>
     <use xlink:href="#DejaVuSans-Bold-20" transform="translate(789.111328 0)"/>
     <use xlink:href="#DejaVuSans-Bold-2b" transform="translate(823.925781 0)"/>
    </g>
    <!-- Geometric Critic -->
    <g transform="translate(882.664813 243.567881) scale(0.1 -0.1)">
     <use xlink:href="#DejaVuSans-Bold-47"/>
     <use xlink:href="#DejaVuSans-Bold-65" transform="translate(82.080078 0)"/>
     <use xlink:href="#DejaVuSans-Bold-6f" transform="translate(149.902344 0)"/>
     <use xlink:href="#DejaVuSans-Bold-6d" transform="translate(218.603516 0)"/>
     <use xlink:href="#DejaVuSans-Bold-65" transform="translate(322.802734 0)"/>
     <use xlink:href="#DejaVuSans-Bold-74" transform="translate(390.625 0)"/>
     <use xlink:href="#DejaVuSans-Bold-72" transform="translate(438.427734 0)"/>
     <use xlink:href="#DejaVuSans-Bold-69" transform="translate(487.744141 0)"/>
     <use xlink:href="#DejaVuSans-Bold-63" transform="translate(522.021484 0)"/>
     <use xlink:href="#DejaVuSans-Bold-20" transform="translate(581.298828 0)"/>
     <use xlink:href="#DejaVuSans-Bold-43" transform="translate(616.113281 0)"/>
     <use xlink:href="#DejaVuSans-Bold-72" transform="translate(689.501953 0)"/>
     <use xlink:href="#DejaVuSans-Bold-69" transform="translate(738.818359 0)"/>
     <use xlink:href="#DejaVuSans-Bold-74" transform="translate(773.095703 0)"/>
     <use xlink:href="#DejaVuSans-Bold-69" transform="translate(820.898438 0)"/>
     <use xlink:href="#DejaVuSans-Bold-63" transform="translate(855.175781 0)"/>
    </g>
   </g>
   <g id="text_16">
    <!-- Geometric Grounding -->
    <g transform="translate(868.027313 286.345944) scale(0.1 -0.1)">
     <use xlink:href="#DejaVuSans-Bold-47"/>
     <use xlink:href="#DejaVuSans-Bold-65" transform="translate(82.080078 0)"/>
     <use xlink:href="#DejaVuSans-Bold-6f" transform="translate(149.902344 0)"/>
     <use xlink:href="#DejaVuSans-Bold-6d" transform="translate(218.603516 0)"/>
     <use xlink:href="#DejaVuSans-Bold-65" transform="translate(322.802734 0)"/>
     <use xlink:href="#DejaVuSans-Bold-74" transform="translate(390.625 0)"/>
     <use xlink:href="#DejaVuSans-Bold-72" transform="translate(438.427734 0)"/>
     <use xlink:href="#DejaVuSans-Bold-69" transform="translate(487.744141 0)"/>
     <use xlink:href="#DejaVuSans-Bold-63" transform="translate(522.021484 0)"/>
     <use xlink:href="#DejaVuSans-Bold-20" transform="translate(581.298828 0)"/>
     <use xlink:href="#DejaVuSans-Bold-47" transform="translate(616.113281 0)"/>
     <use xlink:href="#DejaVuSans-Bold-72" transform="translate(698.193359 0)"/>
     <use xlink:href="#DejaVuSans-Bold-6f" transform="translate(747.509766 0)"/>
     <use xlink:href="#DejaVuSans-Bold-75" transform="translate(816.210938 0)"/>
     <use xlink:href="#DejaVuSans-Bold-6e" transform="translate(887.402344 0)"/>
     <use xlink:href="#DejaVuSans-Bold-64" transform="translate(958.59375 0)"/>
     <use xlink:href="#DejaVuSans-Bold-69" transform="translate(1030.175781 0)"/>
     <use xlink:href="#DejaVuSans-Bold-6e" transform="translate(1064.453125 0)"/>
     <use xlink:href="#DejaVuSans-Bold-67" transform="translate(1135.644531 0)"/>
    </g>
    <!-- (Vertex weights) -->
    <g transform="translate(881.390594 297.621881) scale(0.1 -0.1)">
     <defs>
      <path id="DejaVuSans-Bold-56" d="M 31 4666 
L 1241 4666 
L 2478 1222 
L 3713 4666 
L 4922 4666 
L 3194 0 
L 1759 0 
L 31 4666 
z
" transform="scale(0.015625)"/>
     </defs>
     <use xlink:href="#DejaVuSans-Bold-28"/>
     <use xlink:href="#DejaVuSans-Bold-56" transform="translate(45.703125 0)"/>
     <use xlink:href="#DejaVuSans-Bold-65" transform="translate(117.595703 0)"/>
     <use xlink:href="#DejaVuSans-Bold-72" transform="translate(185.417969 0)"/>
     <use xlink:href="#DejaVuSans-Bold-74" transform="translate(234.734375 0)"/>
     <use xlink:href="#DejaVuSans-Bold-65" transform="translate(282.537109 0)"/>
     <use xlink:href="#DejaVuSans-Bold-78" transform="translate(350.359375 0)"/>
     <use xlink:href="#DejaVuSans-Bold-20" transform="translate(414.861328 0)"/>
     <use xlink:href="#DejaVuSans-Bold-77" transform="translate(449.675781 0)"/>
     <use xlink:href="#DejaVuSans-Bold-65" transform="translate(542.058594 0)"/>
     <use xlink:href="#DejaVuSans-Bold-69" transform="translate(609.880859 0)"/>
     <use xlink:href="#DejaVuSans-Bold-67" transform="translate(644.158203 0)"/>
     <use xlink:href="#DejaVuSans-Bold-68" transform="translate(715.740234 0)"/>
     <use xlink:href="#DejaVuSans-Bold-74" transform="translate(786.931641 0)"/>
     <use xlink:href="#DejaVuSans-Bold-73" transform="translate(834.734375 0)"/>
     <use xlink:href="#DejaVuSans-Bold-29" transform="translate(894.255859 0)"/>
    </g>
   </g>
   <g id="text_17">
    <!-- Rendered views -->
    <g style="fill: #2563eb" transform="translate(896.593438 152.465375) scale(0.1 -0.1)">
     <use xlink:href="#DejaVuSans-Bold-52"/>
     <use xlink:href="#DejaVuSans-Bold-65" transform="translate(77.001953 0)"/>
     <use xlink:href="#DejaVuSans-Bold-6e" transform="translate(144.824219 0)"/>
     <use xlink:href="#DejaVuSans-Bold-64" transform="translate(216.015625 0)"/>
     <use xlink:href="#DejaVuSans-Bold-65" transform="translate(287.597656 0)"/>
     <use xlink:href="#DejaVuSans-Bold-72" transform="translate(355.419922 0)"/>
     <use xlink:href="#DejaVuSans-Bold-65" transform="translate(404.736328 0)"/>
     <use xlink:href="#DejaVuSans-Bold-64" transform="translate(472.558594 0)"/>
     <use xlink:href="#DejaVuSans-Bold-20" transform="translate(544.140625 0)"/>
     <use xlink:href="#DejaVuSans-Bold-76" transform="translate(578.955078 0)"/>
     <use xlink:href="#DejaVuSans-Bold-69" transform="translate(644.140625 0)"/>
     <use xlink:href="#DejaVuSans-Bold-65" transform="translate(678.417969 0)"/>
     <use xlink:href="#DejaVuSans-Bold-77" transform="translate(746.240234 0)"/>
     <use xlink:href="#DejaVuSans-Bold-73" transform="translate(838.623047 0)"/>
    </g>
   </g>
   <g id="text_18">
    <g id="patch_30">
     <path d="M 860.373906 287.305125 
L 1022.628594 287.305125 
Q 1025.128594 287.305125 1025.128594 284.805125 
L 1025.128594 275.048875 
Q 1025.128594 272.548875 1022.628594 272.548875 
L 860.373906 272.548875 
Q 857.873906 272.548875 857.873906 275.048875 
L 857.873906 284.805125 
Q 857.873906 287.305125 860.373906 287.305125 
z
" style="fill: #ffffff; stroke: #dc2626; stroke-width: 1.5; stroke-linejoin: miter"/>
    </g>
    <!-- Spatially grounded feedback -->
    <g style="fill: #dc2626" transform="translate(860.373906 282.647312) scale(0.1 -0.1)">
     <use xlink:href="#DejaVuSans-Bold-53"/>
     <use xlink:href="#DejaVuSans-Bold-70" transform="translate(72.021484 0)"/>
     <use xlink:href="#DejaVuSans-Bold-61" transform="translate(143.603516 0)"/>
     <use xlink:href="#DejaVuSans-Bold-74" transform="translate(211.083984 0)"/>
     <use xlink:href="#DejaVuSans-Bold-69" transform="translate(258.886719 0)"/>
     <use xlink:href="#DejaVuSans-Bold-61" transform="translate(293.164062 0)"/>
     <use xlink:href="#DejaVuSans-Bold-6c" transform="translate(360.644531 0)"/>
     <use xlink:href="#DejaVuSans-Bold-6c" transform="translate(394.921875 0)"/>
     <use xlink:href="#DejaVuSans-Bold-79" transform="translate(429.199219 0)"/>
     <use xlink:href="#DejaVuSans-Bold-20" transform="translate(494.384766 0)"/>
     <use xlink:href="#DejaVuSans-Bold-67" transform="translate(529.199219 0)"/>
     <use xlink:href="#DejaVuSans-Bold-72" transform="translate(600.78125 0)"/>
     <use xlink:href="#DejaVuSans-Bold-6f" transform="translate(650.097656 0)"/>
     <use xlink:href="#DejaVuSans-Bold-75" transform="translate(718.798828 0)"/>
     <use xlink:href="#DejaVuSans-Bold-6e" transform="translate(789.990234 0)"/>
     <use xlink:href="#DejaVuSans-Bold-64" transform="translate(861.181641 0)"/>
     <use xlink:href="#DejaVuSans-Bold-65" transform="translate(932.763672 0)"/>
     <use xlink:href="#DejaVuSans-Bold-64" transform="translate(1000.585938 0)"/>
     <use xlink:href="#DejaVuSans-Bold-20" transform="translate(1072.167969 0)"/>
     <use xlink:href="#DejaVuSans-Bold-66" transform="translate(1106.982422 0)"/>
     <use xlink:href="#DejaVuSans-Bold-65" transform="translate(1150.488281 0)"/>
     <use xlink:href="#DejaVuSans-Bold-65" transform="translate(1218.310547 0)"/>
     <use xlink:href="#DejaVuSans-Bold-64" transform="translate(1286.132812 0)"/>
     <use xlink:href="#DejaVuSans-Bold-62" transform="translate(1357.714844 0)"/>
     <use xlink:href="#DejaVuSans-Bold-61" transform="translate(1429.296875 0)"/>
     <use xlink:href="#DejaVuSans-Bold-63" transform="translate(1496.777344 0)"/>
     <use xlink:href="#DejaVuSans-Bold-6b" transform="translate(1556.054688 0)"/>
    </g>
   </g>
  </g>
 </g>
 <defs>
  <clipPath id="p8b3d51ec82">
   <rect x="7.2" y="7.2" width="1049.04" height="491.4"/>
  </clipPath>
 </defs>
</svg>
